<svg xmlns="http://www.w3.org/2000/svg" xmlns:xlink="http://www.w3.org/1999/xlink" width="500" zoomAndPan="magnify" viewBox="0 0 375 374.999991" height="500" preserveAspectRatio="xMidYMid meet" version="1.0"><defs><clipPath id="697c7111a4"><path d="M 254 100 L 374.078125 100 L 374.078125 204 L 254 204 Z M 254 100 " clip-rule="nonzero"/></clipPath><clipPath id="e8cb396e08"><path d="M 2.078125 160 L 226 160 L 226 351.253906 L 2.078125 351.253906 Z M 2.078125 160 " clip-rule="nonzero"/></clipPath><clipPath id="c6292801e4"><path d="M 2.078125 161 L 225 161 L 225 351.253906 L 2.078125 351.253906 Z M 2.078125 161 " clip-rule="nonzero"/></clipPath></defs><path stroke-linecap="butt" transform="matrix(0.786144, 0, 0, 0.786713, -13.212388, -10.004325)" fill="none" stroke-linejoin="miter" d="M 181.261473 52.751648 C 199.70594 44.563904 220.098207 50.174668 237.5489 58.769565 C 257.016956 68.94342 276.907366 83.744914 284.897319 106.97745 C 288.479879 116.461132 286.124631 127.523771 279.968194 134.951828 C 275.12354 139.55464 268.236678 138.268633 262.433031 137.618182 C 249.255572 134.475161 241.186117 121.441306 230.950232 112.905993 C 222.07582 104.221721 212.625018 94.817484 200.610276 92.41429 C 189.89241 90.443074 180.585705 98.332901 173.71375 106.510714 C 163.378488 120.691549 156.844416 137.727418 151.756287 154.932107 C 148.447016 169.937177 141.406118 184.252074 142.255796 200.091312 C 141.247114 185.483463 137.500582 171.267872 137.142823 156.59051 C 136.472024 137.662869 138.628517 118.630958 142.906719 100.333908 C 150.742636 80.72106 162.861725 61.311787 181.261473 52.751648 Z M 181.261473 52.751648 " stroke="#000000" stroke-width="0.1" stroke-opacity="1" stroke-miterlimit="10"/><path fill="#028df0" d="M 129.285156 31.496094 C 143.785156 25.054688 159.816406 29.46875 173.535156 36.230469 C 188.839844 44.234375 204.476562 55.878906 210.757812 74.15625 C 213.574219 81.617188 211.722656 90.320312 206.882812 96.164062 C 203.074219 99.785156 197.660156 98.773438 193.097656 98.261719 C 182.738281 95.789062 176.394531 85.535156 168.347656 78.820312 C 161.371094 71.988281 153.941406 64.589844 144.496094 62.699219 C 136.070312 61.148438 128.753906 67.355469 123.351562 73.789062 C 115.226562 84.945312 110.089844 98.347656 106.089844 111.882812 C 103.488281 123.6875 97.953125 134.949219 98.621094 147.410156 C 97.828125 135.917969 94.882812 124.734375 94.601562 113.1875 C 94.074219 98.296875 95.769531 83.324219 99.132812 68.929688 C 105.292969 53.5 114.820312 38.230469 129.285156 31.496094 Z M 129.285156 31.496094 " fill-opacity="1" fill-rule="nonzero"/><path stroke-linecap="butt" transform="matrix(0.786144, 0, 0, 0.786713, -13.212388, -10.004325)" fill="none" stroke-linejoin="miter" d="M 349.447987 65.29394 C 362.804326 63.570989 376.8414 69.39526 385.805253 80.577067 C 391.887157 88.893907 395.966604 99.380575 395.902009 110.209847 C 394.724385 123.372799 388.766703 136.386793 378.823982 143.953877 C 367.102403 153.189294 351.072809 155.115822 337.885413 148.710613 C 318.288166 140.433495 306.874658 112.384638 316.946569 91.197797 C 322.616057 76.788559 335.684201 67.409149 349.452956 65.29394 Z M 349.447987 65.29394 " stroke="#000000" stroke-width="0.1" stroke-opacity="1" stroke-miterlimit="10"/><path fill="#028df0" d="M 261.503906 41.363281 C 272.003906 40.007812 283.039062 44.589844 290.085938 53.386719 C 294.867188 59.929688 298.074219 68.179688 298.023438 76.699219 C 297.097656 87.054688 292.414062 97.292969 284.597656 103.246094 C 275.382812 110.511719 262.78125 112.027344 252.414062 106.988281 C 237.007812 100.476562 228.035156 78.410156 235.953125 61.742188 C 240.410156 50.40625 250.683594 43.027344 261.507812 41.363281 Z M 261.503906 41.363281 " fill-opacity="1" fill-rule="nonzero"/><g clip-path="url(#697c7111a4)"><path stroke-linecap="butt" transform="matrix(0.786144, 0, 0, 0.786713, -13.212388, -10.004325)" fill="none" stroke-linejoin="miter" d="M 488.472168 141.828738 C 489.257251 141.779085 490.05724 141.759224 490.862198 141.77412 C 490.529283 149.584502 492.357829 157.389919 491.200081 165.17051 C 489.346691 178.542004 484.502036 191.104158 479.254903 203.214472 C 467.73208 231.799578 445.933621 255.40451 419.509138 266.516803 C 407.380112 271.273539 392.990247 270.906108 382.05872 262.787879 C 364.379459 249.952635 350.476544 230.379508 344.39464 207.787493 C 340.543761 195.582839 340.41457 180.930303 347.028144 169.872629 C 350.342385 165.026517 354.809404 159.614364 360.786962 159.976829 C 366.968244 160.612385 372.488665 164.738531 376.220291 170.115927 C 385.005264 182.936276 386.843748 199.60968 394.0834 213.298951 C 400.145429 222.127216 409.939083 232.613883 420.771233 227.449994 C 433.82447 221.31291 444.805686 210.875896 455.419205 200.642457 C 468.83517 187.812179 478.176657 170.686934 485.629971 153.050266 C 487.130572 149.514988 488.174036 145.741377 488.467199 141.828738 Z M 488.472168 141.828738 " stroke="#000000" stroke-width="0.1" stroke-opacity="1" stroke-miterlimit="10"/></g><path fill="#028df0" d="M 370.796875 101.574219 C 371.414062 101.535156 372.042969 101.519531 372.675781 101.53125 C 372.414062 107.675781 373.851562 113.816406 372.941406 119.9375 C 371.484375 130.457031 367.675781 140.339844 363.550781 149.867188 C 354.492188 172.355469 337.355469 190.925781 316.582031 199.667969 C 307.046875 203.410156 295.734375 203.121094 287.140625 196.734375 C 273.242188 186.636719 262.3125 171.238281 257.53125 153.464844 C 254.503906 143.863281 254.402344 132.335938 259.601562 123.636719 C 262.207031 119.824219 265.71875 115.566406 270.417969 115.851562 C 275.277344 116.351562 279.617188 119.597656 282.550781 123.828125 C 289.457031 133.914062 290.902344 147.03125 296.59375 157.800781 C 301.359375 164.746094 309.058594 172.996094 317.574219 168.933594 C 327.835938 164.105469 336.46875 155.894531 344.8125 147.84375 C 355.359375 137.75 362.703125 124.277344 368.5625 110.402344 C 369.742188 107.621094 370.5625 104.652344 370.792969 101.574219 Z M 370.796875 101.574219 " fill-opacity="1" fill-rule="nonzero"/><g clip-path="url(#e8cb396e08)"><path stroke-linecap="butt" transform="matrix(0.786144, 0, 0, 0.786713, -13.212388, -10.004325)" fill="none" stroke-linejoin="miter" d="M 162.399619 223.810445 C 170.161004 216.501556 181.629169 217.211591 190.657617 220.866035 C 199.725816 225.156036 209.285933 228.467876 217.564081 234.565238 C 230.423532 243.726176 242.711562 253.999336 253.702716 265.796837 C 266.124906 276.963748 277.657667 289.416665 287.540761 303.388958 C 294.835071 312.932223 302.452358 324.079272 301.880937 337.286912 C 296.489707 356.537295 281.652643 370.613859 266.219314 380.032992 C 245.752514 391.60209 222.920529 396.194972 201.047537 403.29532 C 191.586797 406.69157 181.654014 407.927924 171.815639 409.104695 C 160.675419 409.775008 149.475573 412.332126 138.340322 410.137473 C 145.475628 404.372785 154.111534 401.810702 161.95242 397.535597 C 184.466398 386.731152 205.658654 372.87306 227.60121 360.732955 C 236.893008 355.727955 245.995989 349.352538 251.307717 339.168752 C 251.024491 336.929412 250.746234 334.700002 250.477915 332.470592 C 244.232038 325.439758 236.520342 320.419862 228.57511 316.159653 C 219.303187 324.680071 208.610166 331.164724 200.068668 340.678197 C 176.63048 360.077539 150.717792 375.286186 125.754159 392.068826 C 92.144682 413.066987 60.353813 437.550774 26.10832 457.312581 C 24.110832 458.107025 22.068624 458.72272 19.976727 459.169595 C 33.129342 443.236017 48.438449 429.680808 61.387339 413.528758 C 80.075282 391.770909 98.758256 369.998164 118.251156 349.124135 C 138.842178 327.083265 158.851842 304.391944 177.932326 280.727429 C 169.887715 272.455275 159.492827 264.833573 157.04814 252.147288 C 154.722706 242.549405 156.094116 231.21864 162.399619 223.810445 Z M 162.399619 223.810445 " stroke="#000000" stroke-width="0.1" stroke-opacity="1" stroke-miterlimit="10"/></g><g clip-path="url(#c6292801e4)"><path fill="#028df0" d="M 114.457031 166.070312 C 120.558594 160.320312 129.574219 160.878906 136.671875 163.753906 C 143.800781 167.128906 151.316406 169.734375 157.824219 174.53125 C 167.933594 181.738281 177.59375 189.820312 186.234375 199.101562 C 196 207.886719 205.066406 217.683594 212.835938 228.675781 C 218.570312 236.183594 224.558594 244.953125 224.109375 255.34375 C 219.871094 270.488281 208.207031 281.5625 196.074219 288.972656 C 179.984375 298.074219 162.035156 301.6875 144.839844 307.273438 C 137.402344 309.945312 129.59375 310.917969 121.859375 311.84375 C 113.101562 312.371094 104.296875 314.382812 95.542969 312.65625 C 101.152344 308.121094 107.941406 306.105469 114.105469 302.742188 C 131.804688 294.242188 148.464844 283.339844 165.714844 273.789062 C 173.019531 269.851562 180.175781 264.835938 184.351562 256.824219 C 184.128906 255.0625 183.910156 253.308594 183.699219 251.554688 C 178.789062 246.023438 172.726562 242.074219 166.480469 238.722656 C 159.191406 245.425781 150.785156 250.527344 144.070312 258.011719 C 125.644531 273.273438 105.273438 285.238281 85.648438 298.441406 C 59.226562 314.960938 34.234375 334.222656 7.3125 349.769531 C 5.742188 350.394531 4.136719 350.878906 2.492188 351.230469 C 12.832031 338.695312 24.867188 328.03125 35.046875 315.324219 C 49.738281 298.207031 64.425781 281.078125 79.75 264.65625 C 95.9375 247.316406 111.667969 229.464844 126.667969 210.847656 C 120.34375 204.339844 112.171875 198.34375 110.25 188.363281 C 108.421875 180.8125 109.5 171.898438 114.457031 166.070312 Z M 114.457031 166.070312 " fill-opacity="1" fill-rule="nonzero"/></g></svg>