<svg xmlns="http://www.w3.org/2000/svg" xmlns:xlink="http://www.w3.org/1999/xlink" width="500" zoomAndPan="magnify" viewBox="0 0 375 374.999991" height="500" preserveAspectRatio="xMidYMid meet" version="1.0"><defs><clipPath id="02545076e0"><path d="M 24.375 101 L 350.625 101 L 350.625 350.625 L 24.375 350.625 Z M 24.375 101 " clip-rule="nonzero"/></clipPath><clipPath id="d13e27faa5"><path d="M 135 24.375 L 257 24.375 L 257 197 L 135 197 Z M 135 24.375 " clip-rule="nonzero"/></clipPath></defs><path fill="#028df0" d="M 282.136719 346.332031 C 281.296875 346.332031 280.480469 346.082031 279.769531 345.609375 L 234.128906 313.59375 L 231.519531 312.265625 L 203.898438 303.859375 C 202.730469 303.550781 201.71875 303.414062 200.722656 303.414062 C 195.535156 303.414062 191.261719 306.039062 189.011719 310.617188 L 177.652344 335.523438 C 176.992188 336.84375 175.515625 337.753906 173.882812 337.753906 L 129.050781 329.382812 L 127.101562 329.1875 L 113.785156 329.160156 C 112.660156 329.160156 111.550781 328.699219 110.746094 327.90625 L 90.019531 307.183594 C 89.222656 306.382812 88.765625 305.277344 88.765625 304.144531 L 88.765625 286.535156 C 88.765625 282.214844 86.621094 278.214844 83.03125 275.820312 L 64.925781 263.746094 C 63.722656 262.949219 63.011719 261.617188 63.011719 260.175781 L 63.011719 226.8125 C 63.011719 222.210938 60.527344 217.925781 56.546875 215.644531 L 32.078125 201.589844 C 29.871094 199.210938 28.667969 196.136719 28.667969 192.867188 C 28.667969 190.855469 29.121094 188.925781 30.03125 187.113281 L 49.042969 156.316406 C 51.417969 151.585938 55.832031 148.863281 60.742188 148.863281 L 75.886719 148.863281 C 82.988281 148.863281 88.765625 143.085938 88.765625 135.988281 L 88.765625 130.957031 C 88.765625 127.5625 87.394531 124.25 84.996094 121.847656 L 81.109375 118.738281 C 80.59375 118.1875 80.128906 116.996094 80.179688 115.777344 C 80.207031 115.234375 80.335938 114.710938 80.558594 114.230469 C 82.730469 109.664062 88.347656 105.9375 93.058594 105.9375 L 266.03125 105.9375 C 269.527344 105.9375 272.910156 107.378906 275.320312 109.894531 L 292.820312 127.761719 C 295.171875 130.207031 298.511719 131.652344 301.945312 131.695312 L 301.953125 131.695312 C 303.0625 131.695312 304.003906 131.582031 304.925781 131.375 L 337.539062 123.238281 C 337.867188 123.152344 338.21875 123.109375 338.5625 123.109375 C 340.210938 123.109375 341.738281 124.070312 342.441406 125.574219 L 345.523438 133.058594 C 346.050781 134.457031 346.316406 135.925781 346.332031 137.402344 C 346.347656 138.972656 346.082031 140.496094 345.550781 141.945312 L 340.066406 158.242188 C 339.710938 159.332031 339.015625 160.199219 338.074219 160.730469 L 318.25 171.953125 C 313.285156 175 310.984375 180.691406 312.386719 186.179688 L 317.757812 210.070312 C 318.523438 213.453125 320.101562 216.628906 322.328125 219.242188 L 336.792969 236.308594 C 337.402344 237.054688 337.746094 238.007812 337.746094 239.011719 C 337.746094 239.984375 337.410156 240.945312 336.8125 241.699219 L 297.078125 291.058594 C 293.582031 296.597656 294.328125 303.136719 298.597656 307.40625 L 310.640625 320.230469 C 311.628906 321.226562 312.074219 322.414062 311.980469 323.667969 C 311.894531 324.917969 311.285156 326.035156 310.273438 326.792969 C 310.273438 326.792969 285.296875 345.042969 283.941406 345.964844 C 283.597656 346.144531 282.886719 346.324219 282.179688 346.324219 Z M 282.136719 346.332031 " fill-opacity="1" fill-rule="nonzero"/><g clip-path="url(#02545076e0)"><path fill="#000000" d="M 266.039062 110.230469 C 268.367188 110.230469 270.625 111.191406 272.289062 112.933594 L 289.703125 130.707031 C 292.878906 134.011719 297.324219 135.933594 302.089844 135.988281 C 303.351562 135.988281 304.625 135.847656 306.050781 135.523438 L 338.390625 127.023438 L 341.308594 134.089844 L 341.5 134.5625 C 341.84375 135.488281 342.023438 136.460938 342.03125 137.453125 C 342.039062 138.492188 341.867188 139.515625 341.4375 140.699219 L 335.953125 157.003906 L 315.863281 168.386719 C 309.429688 172.347656 306.359375 179.925781 308.167969 187.011719 L 313.570312 211.03125 C 314.480469 215.066406 316.367188 218.871094 319.046875 222.03125 L 333.460938 239.003906 L 293.71875 288.371094 L 293.402344 288.765625 L 293.128906 289.203125 C 288.859375 296.019531 289.855469 304.761719 295.359375 310.253906 L 307.773438 323.3125 C 298.71875 329.933594 285.28125 339.730469 282.105469 342.023438 L 236.59375 310.09375 L 236.035156 309.699219 L 235.414062 309.398438 L 233.886719 308.648438 L 233.382812 308.402344 L 232.761719 308.101562 L 232.109375 307.902344 L 204.730469 299.625 C 203.382812 299.285156 202.027344 299.113281 200.714844 299.113281 C 193.921875 299.113281 188.109375 302.699219 185.054688 308.941406 L 174.0625 333.488281 L 129.847656 325.167969 L 129.453125 325.089844 L 129.050781 325.058594 L 128.261719 324.980469 L 127.480469 324.910156 L 127.09375 324.867188 L 113.792969 324.867188 L 93.058594 304.144531 L 93.058594 286.535156 C 93.058594 280.78125 90.199219 275.441406 85.410156 272.246094 L 67.300781 260.175781 L 67.300781 226.8125 C 67.300781 220.683594 63.996094 214.972656 58.683594 211.917969 L 34.839844 198.230469 C 33.621094 196.722656 32.960938 194.839844 32.960938 192.867188 C 32.960938 191.628906 33.21875 190.4375 33.734375 189.320312 L 52.699219 158.566406 L 52.894531 158.242188 L 53.066406 157.898438 C 54.527344 154.976562 57.472656 153.15625 60.742188 153.15625 L 75.886719 153.15625 C 85.359375 153.15625 93.058594 145.457031 93.058594 135.988281 L 93.058594 130.957031 C 93.058594 126.371094 91.273438 122.0625 88.027344 118.816406 L 87.675781 118.464844 L 87.28125 118.15625 L 84.5 115.957031 C 85.984375 112.996094 90.097656 110.230469 93.058594 110.230469 L 266.039062 110.230469 M 266.039062 101.644531 L 93.058594 101.644531 C 86.664062 101.644531 79.527344 106.410156 76.6875 112.394531 C 76.195312 113.414062 75.929688 114.503906 75.886719 115.597656 C 75.785156 117.972656 76.695312 120.359375 78.4375 122.105469 L 81.957031 124.886719 C 83.570312 126.5 84.472656 128.679688 84.472656 130.957031 L 84.472656 135.988281 C 84.472656 140.726562 80.628906 144.574219 75.886719 144.574219 L 60.742188 144.574219 C 54.234375 144.574219 48.292969 148.246094 45.382812 154.066406 L 26.1875 185.199219 C 24.96875 187.636719 24.375 190.265625 24.375 192.867188 C 24.375 197.320312 26.109375 201.71875 29.40625 205.015625 L 54.40625 219.371094 C 57.070312 220.898438 58.71875 223.738281 58.71875 226.8125 L 58.71875 260.175781 C 58.71875 263.042969 60.152344 265.730469 62.539062 267.320312 L 80.644531 279.390625 C 83.039062 280.988281 84.472656 283.667969 84.472656 286.535156 L 84.472656 304.144531 C 84.472656 306.417969 85.375 308.605469 86.988281 310.214844 L 107.714844 330.9375 C 109.328125 332.550781 111.507812 333.453125 113.785156 333.453125 L 126.6875 333.453125 C 127.210938 333.503906 127.734375 333.546875 128.261719 333.601562 L 172.476562 341.917969 C 172.9375 341.996094 173.402344 342.039062 173.867188 342.039062 C 173.875 342.039062 173.882812 342.039062 173.890625 342.039062 C 177.101562 342.039062 180.097656 340.238281 181.566406 337.292969 L 192.867188 312.503906 C 194.359375 309.464844 197.160156 307.699219 200.714844 307.699219 C 201.355469 307.699219 202 307.792969 202.644531 307.953125 L 229.621094 316.121094 C 230.308594 316.453125 230.976562 316.78125 231.65625 317.105469 L 277.382812 349.183594 C 278.839844 350.144531 280.5 350.625 282.15625 350.625 C 282.164062 350.625 282.171875 350.625 282.179688 350.625 C 283.605469 350.625 285.03125 350.265625 286.3125 349.550781 C 286.652344 349.363281 312.847656 330.234375 312.847656 330.234375 C 317.03125 327.101562 317.460938 320.988281 313.765625 317.296875 L 301.628906 304.367188 C 298.804688 301.542969 298.296875 297.136719 300.417969 293.746094 L 340.160156 244.378906 C 341.414062 242.808594 342.039062 240.910156 342.039062 239.011719 C 342.039062 237.074219 341.378906 235.132812 340.074219 233.542969 L 325.605469 216.476562 C 323.8125 214.363281 322.558594 211.847656 321.957031 209.144531 L 316.558594 185.121094 C 315.628906 181.480469 317.175781 177.660156 320.378906 175.695312 L 340.203125 164.472656 C 342.082031 163.410156 343.492188 161.675781 344.152344 159.621094 L 349.59375 143.4375 C 350.316406 141.472656 350.660156 139.414062 350.632812 137.359375 C 350.617188 135.394531 350.253906 133.4375 349.558594 131.574219 C 349.441406 131.257812 349.3125 130.9375 349.175781 130.621094 L 346.339844 123.742188 C 344.890625 120.6875 341.832031 118.816406 338.5625 118.816406 C 337.882812 118.816406 337.1875 118.894531 336.511719 119.066406 L 303.972656 127.1875 C 303.34375 127.332031 302.71875 127.402344 302.089844 127.402344 C 302.066406 127.402344 302.03125 127.402344 302.003906 127.402344 C 299.722656 127.375 297.515625 126.449219 295.902344 124.765625 L 278.429688 106.925781 C 275.183594 103.550781 270.710938 101.644531 266.039062 101.644531 Z M 266.039062 101.644531 " fill-opacity="1" fill-rule="nonzero"/></g><path fill="#000000" d="M 153.15625 221.84375 C 153.15625 222.40625 153.128906 222.964844 153.074219 223.523438 C 153.019531 224.085938 152.9375 224.640625 152.828125 225.191406 C 152.71875 225.742188 152.582031 226.289062 152.417969 226.828125 C 152.253906 227.363281 152.066406 227.894531 151.851562 228.414062 C 151.636719 228.933594 151.394531 229.441406 151.128906 229.9375 C 150.867188 230.433594 150.578125 230.914062 150.265625 231.382812 C 149.953125 231.847656 149.617188 232.300781 149.261719 232.734375 C 148.902344 233.171875 148.527344 233.585938 148.128906 233.984375 C 147.730469 234.382812 147.316406 234.757812 146.878906 235.117188 C 146.445312 235.472656 145.996094 235.808594 145.527344 236.121094 C 145.058594 236.433594 144.578125 236.71875 144.082031 236.984375 C 143.585938 237.25 143.078125 237.492188 142.558594 237.707031 C 142.039062 237.921875 141.507812 238.109375 140.972656 238.273438 C 140.433594 238.4375 139.886719 238.574219 139.335938 238.683594 C 138.785156 238.792969 138.230469 238.875 137.667969 238.929688 C 137.109375 238.984375 136.550781 239.011719 135.988281 239.011719 C 135.425781 239.011719 134.863281 238.984375 134.304688 238.929688 C 133.742188 238.875 133.1875 238.792969 132.636719 238.683594 C 132.085938 238.574219 131.539062 238.4375 131.003906 238.273438 C 130.464844 238.109375 129.933594 237.921875 129.414062 237.707031 C 128.894531 237.492188 128.386719 237.25 127.890625 236.984375 C 127.394531 236.71875 126.914062 236.433594 126.445312 236.121094 C 125.980469 235.808594 125.527344 235.472656 125.09375 235.117188 C 124.660156 234.757812 124.242188 234.382812 123.84375 233.984375 C 123.449219 233.585938 123.070312 233.171875 122.714844 232.734375 C 122.355469 232.300781 122.023438 231.847656 121.710938 231.382812 C 121.398438 230.914062 121.109375 230.433594 120.84375 229.9375 C 120.578125 229.441406 120.339844 228.933594 120.121094 228.414062 C 119.90625 227.894531 119.71875 227.363281 119.554688 226.828125 C 119.390625 226.289062 119.253906 225.742188 119.144531 225.191406 C 119.035156 224.640625 118.953125 224.085938 118.898438 223.523438 C 118.84375 222.964844 118.816406 222.40625 118.816406 221.84375 C 118.816406 221.28125 118.84375 220.71875 118.898438 220.160156 C 118.953125 219.597656 119.035156 219.042969 119.144531 218.492188 C 119.253906 217.941406 119.390625 217.394531 119.554688 216.859375 C 119.71875 216.320312 119.90625 215.789062 120.121094 215.269531 C 120.339844 214.75 120.578125 214.242188 120.84375 213.746094 C 121.109375 213.25 121.398438 212.769531 121.710938 212.300781 C 122.023438 211.835938 122.355469 211.382812 122.714844 210.949219 C 123.070312 210.515625 123.449219 210.097656 123.84375 209.699219 C 124.242188 209.300781 124.660156 208.925781 125.09375 208.570312 C 125.527344 208.210938 125.980469 207.878906 126.445312 207.566406 C 126.914062 207.253906 127.398438 206.964844 127.890625 206.699219 C 128.386719 206.433594 128.894531 206.191406 129.414062 205.976562 C 129.933594 205.761719 130.464844 205.574219 131.003906 205.410156 C 131.539062 205.246094 132.085938 205.109375 132.636719 205 C 133.1875 204.890625 133.742188 204.808594 134.304688 204.753906 C 134.863281 204.699219 135.425781 204.671875 135.988281 204.671875 C 136.550781 204.671875 137.109375 204.699219 137.667969 204.753906 C 138.230469 204.808594 138.785156 204.890625 139.335938 205 C 139.886719 205.109375 140.433594 205.246094 140.972656 205.410156 C 141.507812 205.574219 142.039062 205.761719 142.558594 205.976562 C 143.078125 206.191406 143.585938 206.433594 144.082031 206.699219 C 144.578125 206.964844 145.058594 207.253906 145.527344 207.566406 C 145.996094 207.878906 146.445312 208.210938 146.878906 208.570312 C 147.316406 208.925781 147.730469 209.300781 148.128906 209.699219 C 148.527344 210.097656 148.902344 210.515625 149.261719 210.949219 C 149.617188 211.382812 149.953125 211.835938 150.265625 212.300781 C 150.578125 212.769531 150.867188 213.25 151.128906 213.746094 C 151.394531 214.242188 151.636719 214.75 151.851562 215.269531 C 152.066406 215.789062 152.253906 216.320312 152.417969 216.859375 C 152.582031 217.394531 152.71875 217.941406 152.828125 218.492188 C 152.9375 219.042969 153.019531 219.597656 153.074219 220.160156 C 153.128906 220.71875 153.15625 221.28125 153.15625 221.84375 Z M 153.15625 221.84375 " fill-opacity="1" fill-rule="nonzero"/><path fill="#ffffff" d="M 196.078125 189.65625 C 177.042969 168.207031 140.28125 121.90625 140.28125 84.472656 C 140.28125 53.703125 165.316406 28.667969 196.085938 28.667969 C 226.855469 28.667969 251.890625 53.703125 251.890625 84.472656 C 251.890625 121.734375 215.109375 168.140625 196.078125 189.65625 Z M 196.085938 63.011719 C 184.253906 63.011719 174.621094 72.632812 174.621094 84.472656 C 174.621094 96.3125 184.253906 105.9375 196.085938 105.9375 C 207.917969 105.9375 217.550781 96.3125 217.550781 84.472656 C 217.550781 72.632812 207.917969 63.011719 196.085938 63.011719 Z M 196.085938 63.011719 " fill-opacity="1" fill-rule="nonzero"/><g clip-path="url(#d13e27faa5)"><path fill="#000000" d="M 196.085938 32.960938 C 224.488281 32.960938 247.597656 56.074219 247.597656 84.472656 C 247.597656 118.34375 215.378906 160.765625 196.066406 183.136719 C 176.769531 160.832031 144.574219 118.515625 144.574219 84.472656 C 144.574219 56.074219 167.683594 32.960938 196.085938 32.960938 M 196.085938 110.230469 C 210.285156 110.230469 221.84375 98.675781 221.84375 84.472656 C 221.84375 70.273438 210.285156 58.71875 196.085938 58.71875 C 181.886719 58.71875 170.328125 70.273438 170.328125 84.472656 C 170.328125 98.675781 181.886719 110.230469 196.085938 110.230469 M 196.085938 24.375 C 162.894531 24.375 135.988281 51.28125 135.988281 84.472656 C 135.988281 129.460938 185.972656 184.976562 196.078125 196.085938 C 206.191406 184.941406 256.183594 129.230469 256.183594 84.472656 C 256.183594 51.28125 229.277344 24.375 196.085938 24.375 Z M 196.085938 101.644531 C 186.617188 101.644531 178.914062 93.945312 178.914062 84.472656 C 178.914062 75.003906 186.617188 67.300781 196.085938 67.300781 C 205.554688 67.300781 213.257812 75.003906 213.257812 84.472656 C 213.257812 93.945312 205.554688 101.644531 196.085938 101.644531 Z M 196.085938 101.644531 " fill-opacity="1" fill-rule="nonzero"/></g></svg>