<svg xmlns="http://www.w3.org/2000/svg" xmlns:xlink="http://www.w3.org/1999/xlink" width="500" zoomAndPan="magnify" viewBox="0 0 375 374.999991" height="500" preserveAspectRatio="xMidYMid meet" version="1.0"><defs><clipPath id="86a6faa198"><path d="M 0.0898438 280 L 48 280 L 48 297 L 0.0898438 297 Z M 0.0898438 280 " clip-rule="nonzero"/></clipPath><clipPath id="a6f55fb365"><path d="M 0.0898438 213 L 48 213 L 48 230 L 0.0898438 230 Z M 0.0898438 213 " clip-rule="nonzero"/></clipPath><clipPath id="a16430343c"><path d="M 0.0898438 146 L 48 146 L 48 163 L 0.0898438 163 Z M 0.0898438 146 " clip-rule="nonzero"/></clipPath><clipPath id="bfe6161aba"><path d="M 0.0898438 79 L 48 79 L 48 96 L 0.0898438 96 Z M 0.0898438 79 " clip-rule="nonzero"/></clipPath><clipPath id="5bf49ab6c2"><path d="M 28 26 L 276 26 L 276 350.546875 L 28 350.546875 Z M 28 26 " clip-rule="nonzero"/></clipPath></defs><path fill="#000000" d="M 360.535156 70.027344 L 281.632812 239.140625 L 256.132812 227.230469 L 284.722656 165.960938 C 284.796875 165.808594 284.875 165.644531 284.941406 165.492188 L 335.039062 58.164062 Z M 360.535156 70.027344 " fill-opacity="1" fill-rule="nonzero"/><path fill="#000000" d="M 371.910156 45.636719 L 364.851562 60.769531 L 339.355469 48.855469 L 346.410156 33.734375 C 346.777344 32.949219 347.214844 32.210938 347.726562 31.515625 C 348.238281 30.816406 348.816406 30.175781 349.453125 29.59375 C 350.089844 29.011719 350.777344 28.492188 351.519531 28.046875 C 352.257812 27.597656 353.03125 27.226562 353.84375 26.929688 C 354.65625 26.632812 355.492188 26.417969 356.34375 26.289062 C 357.199219 26.15625 358.058594 26.109375 358.921875 26.144531 C 359.789062 26.183594 360.640625 26.304688 361.480469 26.507812 C 362.320312 26.710938 363.132812 26.996094 363.914062 27.359375 L 365.535156 28.117188 C 366.316406 28.484375 367.058594 28.921875 367.757812 29.433594 C 368.457031 29.949219 369.097656 30.523438 369.683594 31.160156 C 370.265625 31.800781 370.785156 32.488281 371.230469 33.230469 C 371.679688 33.96875 372.054688 34.746094 372.351562 35.558594 C 372.644531 36.371094 372.859375 37.207031 372.992188 38.0625 C 373.125 38.917969 373.171875 39.777344 373.132812 40.640625 C 373.09375 41.507812 372.972656 42.359375 372.765625 43.199219 C 372.5625 44.042969 372.277344 44.855469 371.910156 45.636719 Z M 371.910156 45.636719 " fill-opacity="1" fill-rule="nonzero"/><path fill="#000000" d="M 275.3125 247.464844 L 250.871094 271.808594 L 253.808594 237.449219 Z M 275.3125 247.464844 " fill-opacity="1" fill-rule="nonzero"/><g clip-path="url(#86a6faa198)"><path fill="#000000" d="M 47.140625 288.769531 C 47.140625 289.296875 47.089844 289.816406 46.984375 290.332031 C 46.882812 290.847656 46.730469 291.351562 46.53125 291.835938 C 46.328125 292.324219 46.082031 292.785156 45.789062 293.222656 C 45.496094 293.660156 45.164062 294.066406 44.792969 294.4375 C 44.417969 294.808594 44.015625 295.140625 43.574219 295.433594 C 43.136719 295.726562 42.675781 295.972656 42.1875 296.175781 C 41.703125 296.375 41.203125 296.527344 40.683594 296.628906 C 40.167969 296.734375 39.648438 296.785156 39.121094 296.785156 L 8.265625 296.785156 C 7.738281 296.785156 7.21875 296.734375 6.703125 296.628906 C 6.1875 296.527344 5.683594 296.375 5.199219 296.175781 C 4.710938 295.972656 4.25 295.726562 3.8125 295.433594 C 3.375 295.140625 2.96875 294.808594 2.597656 294.4375 C 2.222656 294.066406 1.890625 293.660156 1.597656 293.222656 C 1.304688 292.785156 1.058594 292.324219 0.859375 291.835938 C 0.65625 291.351562 0.503906 290.847656 0.402344 290.332031 C 0.296875 289.816406 0.246094 289.296875 0.246094 288.769531 C 0.246094 288.242188 0.296875 287.722656 0.402344 287.203125 C 0.503906 286.6875 0.65625 286.1875 0.859375 285.699219 C 1.058594 285.214844 1.304688 284.753906 1.597656 284.316406 C 1.890625 283.878906 2.222656 283.472656 2.597656 283.101562 C 2.96875 282.726562 3.375 282.394531 3.8125 282.105469 C 4.25 281.8125 4.710938 281.5625 5.199219 281.363281 C 5.683594 281.160156 6.1875 281.007812 6.703125 280.90625 C 7.21875 280.804688 7.738281 280.753906 8.265625 280.753906 L 39.121094 280.753906 C 39.648438 280.753906 40.167969 280.804688 40.683594 280.910156 C 41.199219 281.011719 41.703125 281.164062 42.1875 281.367188 C 42.675781 281.566406 43.136719 281.8125 43.574219 282.105469 C 44.011719 282.398438 44.417969 282.730469 44.789062 283.101562 C 45.160156 283.476562 45.492188 283.878906 45.785156 284.316406 C 46.078125 284.753906 46.324219 285.214844 46.527344 285.703125 C 46.730469 286.1875 46.882812 286.691406 46.984375 287.207031 C 47.085938 287.722656 47.140625 288.242188 47.140625 288.769531 Z M 47.140625 288.769531 " fill-opacity="1" fill-rule="nonzero"/></g><g clip-path="url(#a6f55fb365)"><path fill="#000000" d="M 47.140625 221.816406 C 47.140625 222.34375 47.089844 222.863281 46.984375 223.382812 C 46.882812 223.898438 46.730469 224.398438 46.53125 224.886719 C 46.328125 225.371094 46.082031 225.835938 45.789062 226.273438 C 45.496094 226.710938 45.164062 227.117188 44.792969 227.488281 C 44.417969 227.859375 44.015625 228.191406 43.578125 228.484375 C 43.140625 228.777344 42.675781 229.027344 42.191406 229.226562 C 41.703125 229.429688 41.203125 229.582031 40.683594 229.683594 C 40.167969 229.789062 39.648438 229.839844 39.121094 229.839844 L 8.265625 229.839844 C 7.75 229.824219 7.242188 229.757812 6.738281 229.644531 C 6.234375 229.527344 5.746094 229.367188 5.277344 229.15625 C 4.804688 228.949219 4.355469 228.695312 3.933594 228.402344 C 3.507812 228.105469 3.117188 227.773438 2.757812 227.402344 C 2.402344 227.03125 2.082031 226.628906 1.796875 226.199219 C 1.515625 225.765625 1.28125 225.308594 1.085938 224.832031 C 0.890625 224.351562 0.746094 223.859375 0.648438 223.355469 C 0.550781 222.847656 0.5 222.335938 0.5 221.820312 C 0.5 221.304688 0.550781 220.792969 0.648438 220.289062 C 0.746094 219.78125 0.890625 219.289062 1.085938 218.8125 C 1.28125 218.332031 1.515625 217.878906 1.796875 217.445312 C 2.082031 217.011719 2.402344 216.609375 2.757812 216.238281 C 3.117188 215.871094 3.507812 215.535156 3.933594 215.242188 C 4.355469 214.945312 4.804688 214.695312 5.277344 214.484375 C 5.746094 214.277344 6.234375 214.113281 6.738281 214 C 7.242188 213.882812 7.75 213.816406 8.265625 213.800781 L 39.121094 213.800781 C 39.648438 213.800781 40.167969 213.851562 40.683594 213.957031 C 41.199219 214.058594 41.703125 214.210938 42.1875 214.414062 C 42.675781 214.613281 43.136719 214.863281 43.574219 215.15625 C 44.011719 215.445312 44.417969 215.777344 44.789062 216.152344 C 45.160156 216.523438 45.492188 216.929688 45.785156 217.367188 C 46.078125 217.804688 46.324219 218.265625 46.527344 218.75 C 46.730469 219.238281 46.882812 219.738281 46.984375 220.253906 C 47.085938 220.769531 47.140625 221.289062 47.140625 221.816406 Z M 47.140625 221.816406 " fill-opacity="1" fill-rule="nonzero"/></g><g clip-path="url(#a16430343c)"><path fill="#000000" d="M 47.140625 154.898438 C 47.140625 155.425781 47.085938 155.945312 46.984375 156.460938 C 46.882812 156.976562 46.730469 157.480469 46.527344 157.964844 C 46.324219 158.453125 46.078125 158.914062 45.785156 159.351562 C 45.492188 159.789062 45.160156 160.191406 44.789062 160.566406 C 44.417969 160.9375 44.011719 161.269531 43.574219 161.5625 C 43.136719 161.855469 42.675781 162.101562 42.1875 162.300781 C 41.703125 162.503906 41.199219 162.65625 40.683594 162.757812 C 40.167969 162.863281 39.648438 162.914062 39.121094 162.914062 L 8.265625 162.914062 C 7.75 162.898438 7.242188 162.832031 6.738281 162.71875 C 6.234375 162.601562 5.746094 162.441406 5.277344 162.230469 C 4.804688 162.023438 4.355469 161.769531 3.933594 161.472656 C 3.507812 161.179688 3.117188 160.847656 2.757812 160.476562 C 2.402344 160.105469 2.082031 159.703125 1.800781 159.269531 C 1.515625 158.839844 1.28125 158.382812 1.085938 157.90625 C 0.894531 157.425781 0.746094 156.933594 0.648438 156.429688 C 0.550781 155.921875 0.5 155.410156 0.5 154.894531 C 0.5 154.378906 0.550781 153.867188 0.648438 153.359375 C 0.746094 152.855469 0.894531 152.363281 1.085938 151.882812 C 1.28125 151.40625 1.515625 150.949219 1.800781 150.519531 C 2.082031 150.085938 2.402344 149.683594 2.757812 149.3125 C 3.117188 148.941406 3.507812 148.609375 3.933594 148.316406 C 4.355469 148.019531 4.804688 147.765625 5.277344 147.558594 C 5.746094 147.347656 6.234375 147.1875 6.738281 147.074219 C 7.242188 146.957031 7.75 146.890625 8.265625 146.875 L 39.121094 146.875 C 39.648438 146.875 40.167969 146.925781 40.683594 147.03125 C 41.203125 147.132812 41.703125 147.285156 42.191406 147.488281 C 42.675781 147.691406 43.140625 147.9375 43.578125 148.230469 C 44.015625 148.523438 44.417969 148.855469 44.792969 149.226562 C 45.164062 149.601562 45.496094 150.003906 45.789062 150.445312 C 46.082031 150.882812 46.328125 151.34375 46.53125 151.832031 C 46.730469 152.316406 46.882812 152.816406 46.984375 153.335938 C 47.089844 153.851562 47.140625 154.371094 47.140625 154.898438 Z M 47.140625 154.898438 " fill-opacity="1" fill-rule="nonzero"/></g><g clip-path="url(#bfe6161aba)"><path fill="#000000" d="M 47.140625 87.945312 C 47.140625 88.472656 47.085938 88.996094 46.984375 89.511719 C 46.882812 90.027344 46.730469 90.527344 46.527344 91.011719 C 46.324219 91.5 46.078125 91.960938 45.785156 92.398438 C 45.492188 92.835938 45.160156 93.242188 44.789062 93.613281 C 44.417969 93.984375 44.011719 94.316406 43.574219 94.609375 C 43.136719 94.902344 42.675781 95.148438 42.1875 95.351562 C 41.703125 95.550781 41.199219 95.703125 40.683594 95.808594 C 40.167969 95.910156 39.648438 95.960938 39.121094 95.964844 L 8.265625 95.964844 C 7.738281 95.964844 7.21875 95.910156 6.703125 95.808594 C 6.1875 95.707031 5.683594 95.554688 5.199219 95.351562 C 4.710938 95.152344 4.25 94.90625 3.8125 94.613281 C 3.375 94.320312 2.96875 93.988281 2.597656 93.613281 C 2.222656 93.242188 1.890625 92.839844 1.597656 92.402344 C 1.304688 91.960938 1.058594 91.5 0.859375 91.015625 C 0.65625 90.527344 0.503906 90.027344 0.402344 89.511719 C 0.296875 88.996094 0.246094 88.472656 0.246094 87.945312 C 0.246094 87.421875 0.296875 86.898438 0.402344 86.382812 C 0.503906 85.867188 0.65625 85.367188 0.859375 84.878906 C 1.058594 84.394531 1.304688 83.929688 1.597656 83.492188 C 1.890625 83.054688 2.222656 82.652344 2.597656 82.277344 C 2.96875 81.90625 3.375 81.574219 3.8125 81.28125 C 4.25 80.988281 4.710938 80.742188 5.199219 80.542969 C 5.683594 80.339844 6.1875 80.1875 6.703125 80.085938 C 7.21875 79.984375 7.738281 79.929688 8.265625 79.929688 L 39.121094 79.929688 C 39.648438 79.929688 40.167969 79.984375 40.683594 80.085938 C 41.203125 80.1875 41.703125 80.339844 42.1875 80.542969 C 42.675781 80.742188 43.136719 80.988281 43.574219 81.28125 C 44.015625 81.574219 44.417969 81.90625 44.792969 82.277344 C 45.164062 82.652344 45.496094 83.054688 45.789062 83.492188 C 46.082031 83.929688 46.328125 84.394531 46.53125 84.878906 C 46.730469 85.367188 46.882812 85.867188 46.984375 86.382812 C 47.089844 86.898438 47.140625 87.421875 47.140625 87.945312 Z M 47.140625 87.945312 " fill-opacity="1" fill-rule="nonzero"/></g><g clip-path="url(#5bf49ab6c2)"><path fill="#028df0" d="M 86.941406 216.710938 L 244.589844 216.710938 C 245.421875 216.710938 246.207031 216.90625 246.945312 217.289062 C 247.683594 217.675781 248.292969 218.207031 248.769531 218.890625 L 275.117188 162.402344 L 275.117188 61.03125 C 275.117188 59.890625 275.0625 58.75 274.949219 57.613281 C 274.839844 56.476562 274.671875 55.347656 274.449219 54.226562 C 274.226562 53.105469 273.949219 51.996094 273.617188 50.90625 C 273.285156 49.8125 272.898438 48.734375 272.460938 47.679688 C 272.023438 46.625 271.535156 45.59375 270.996094 44.585938 C 270.457031 43.578125 269.871094 42.597656 269.234375 41.648438 C 268.601562 40.699219 267.921875 39.78125 267.195312 38.898438 C 266.46875 38.015625 265.703125 37.171875 264.894531 36.363281 C 264.085938 35.554688 263.242188 34.789062 262.355469 34.0625 C 261.472656 33.335938 260.554688 32.65625 259.605469 32.023438 C 258.65625 31.386719 257.675781 30.800781 256.667969 30.261719 C 255.660156 29.722656 254.625 29.238281 253.570312 28.800781 C 252.515625 28.363281 251.4375 27.976562 250.34375 27.644531 C 249.25 27.3125 248.144531 27.035156 247.023438 26.8125 C 245.902344 26.589844 244.773438 26.421875 243.632812 26.3125 C 242.496094 26.199219 241.355469 26.144531 240.210938 26.144531 L 40.378906 26.144531 C 39.617188 26.144531 38.867188 26.21875 38.117188 26.367188 C 37.371094 26.515625 36.648438 26.738281 35.945312 27.027344 C 35.242188 27.320312 34.574219 27.679688 33.941406 28.101562 C 33.308594 28.523438 32.722656 29.007812 32.1875 29.542969 C 31.648438 30.082031 31.167969 30.667969 30.746094 31.300781 C 30.324219 31.933594 29.96875 32.601562 29.679688 33.304688 C 29.386719 34.007812 29.167969 34.734375 29.019531 35.480469 C 28.875 36.226562 28.800781 36.980469 28.800781 37.742188 L 28.800781 69.761719 L 39.121094 69.761719 C 39.71875 69.761719 40.3125 69.792969 40.90625 69.851562 C 41.503906 69.910156 42.09375 69.996094 42.679688 70.113281 C 43.265625 70.230469 43.84375 70.375 44.414062 70.546875 C 44.984375 70.71875 45.546875 70.921875 46.097656 71.148438 C 46.652344 71.378906 47.191406 71.632812 47.714844 71.914062 C 48.242188 72.195312 48.753906 72.503906 49.25 72.835938 C 49.75 73.164062 50.226562 73.519531 50.6875 73.898438 C 51.152344 74.277344 51.59375 74.679688 52.015625 75.101562 C 52.4375 75.523438 52.839844 75.964844 53.21875 76.425781 C 53.597656 76.886719 53.953125 77.367188 54.28125 77.863281 C 54.613281 78.359375 54.921875 78.871094 55.203125 79.398438 C 55.484375 79.925781 55.738281 80.460938 55.96875 81.015625 C 56.195312 81.566406 56.398438 82.128906 56.570312 82.699219 C 56.746094 83.269531 56.890625 83.847656 57.007812 84.433594 C 57.121094 85.019531 57.210938 85.609375 57.269531 86.203125 C 57.328125 86.796875 57.355469 87.394531 57.355469 87.988281 C 57.355469 88.585938 57.328125 89.183594 57.269531 89.777344 C 57.210938 90.371094 57.121094 90.960938 57.007812 91.546875 C 56.890625 92.132812 56.746094 92.710938 56.570312 93.28125 C 56.398438 93.851562 56.195312 94.414062 55.96875 94.964844 C 55.738281 95.515625 55.484375 96.054688 55.203125 96.582031 C 54.921875 97.109375 54.613281 97.621094 54.28125 98.117188 C 53.953125 98.613281 53.597656 99.089844 53.21875 99.554688 C 52.839844 100.015625 52.4375 100.457031 52.015625 100.878906 C 51.59375 101.300781 51.152344 101.699219 50.6875 102.078125 C 50.226562 102.457031 49.75 102.8125 49.25 103.144531 C 48.753906 103.476562 48.242188 103.78125 47.714844 104.066406 C 47.191406 104.347656 46.652344 104.601562 46.097656 104.828125 C 45.546875 105.058594 44.984375 105.257812 44.414062 105.433594 C 43.84375 105.605469 43.265625 105.75 42.679688 105.867188 C 42.09375 105.984375 41.503906 106.070312 40.90625 106.128906 C 40.3125 106.1875 39.71875 106.214844 39.121094 106.214844 L 28.800781 106.214844 L 28.800781 136.679688 L 39.121094 136.679688 C 39.710938 136.691406 40.296875 136.734375 40.882812 136.804688 C 41.46875 136.875 42.046875 136.972656 42.625 137.097656 C 43.199219 137.222656 43.765625 137.375 44.328125 137.558594 C 44.890625 137.738281 45.441406 137.945312 45.980469 138.179688 C 46.519531 138.414062 47.050781 138.671875 47.566406 138.957031 C 48.082031 139.246094 48.582031 139.554688 49.066406 139.886719 C 49.550781 140.222656 50.019531 140.578125 50.472656 140.957031 C 50.921875 141.335938 51.351562 141.738281 51.765625 142.15625 C 52.179688 142.578125 52.570312 143.019531 52.9375 143.476562 C 53.308594 143.9375 53.652344 144.410156 53.976562 144.902344 C 54.300781 145.394531 54.601562 145.902344 54.875 146.425781 C 55.148438 146.945312 55.398438 147.480469 55.621094 148.023438 C 55.84375 148.570312 56.039062 149.125 56.207031 149.6875 C 56.375 150.253906 56.515625 150.824219 56.628906 151.402344 C 56.742188 151.980469 56.828125 152.5625 56.886719 153.148438 C 56.941406 153.734375 56.96875 154.324219 56.96875 154.910156 C 56.96875 155.5 56.941406 156.089844 56.886719 156.675781 C 56.828125 157.261719 56.742188 157.84375 56.628906 158.421875 C 56.515625 159 56.375 159.570312 56.207031 160.132812 C 56.039062 160.699219 55.84375 161.253906 55.621094 161.800781 C 55.398438 162.34375 55.148438 162.878906 54.875 163.398438 C 54.601562 163.921875 54.300781 164.425781 53.976562 164.917969 C 53.652344 165.410156 53.308594 165.886719 52.9375 166.347656 C 52.570312 166.804688 52.179688 167.246094 51.765625 167.667969 C 51.351562 168.085938 50.921875 168.488281 50.472656 168.867188 C 50.019531 169.246094 49.550781 169.601562 49.066406 169.9375 C 48.582031 170.269531 48.082031 170.578125 47.566406 170.863281 C 47.050781 171.148438 46.519531 171.410156 45.980469 171.644531 C 45.441406 171.878906 44.890625 172.085938 44.328125 172.265625 C 43.765625 172.449219 43.199219 172.601562 42.625 172.726562 C 42.046875 172.851562 41.46875 172.949219 40.882812 173.019531 C 40.296875 173.089844 39.710938 173.128906 39.121094 173.144531 L 28.800781 173.144531 L 28.800781 203.605469 L 39.121094 203.605469 C 39.710938 203.621094 40.296875 203.660156 40.882812 203.730469 C 41.46875 203.800781 42.046875 203.898438 42.625 204.023438 C 43.199219 204.148438 43.765625 204.300781 44.328125 204.484375 C 44.890625 204.664062 45.441406 204.871094 45.980469 205.105469 C 46.519531 205.339844 47.050781 205.601562 47.566406 205.886719 C 48.082031 206.171875 48.582031 206.480469 49.066406 206.8125 C 49.550781 207.148438 50.019531 207.503906 50.472656 207.882812 C 50.921875 208.261719 51.355469 208.664062 51.765625 209.082031 C 52.179688 209.503906 52.570312 209.945312 52.9375 210.402344 C 53.308594 210.863281 53.65625 211.335938 53.976562 211.828125 C 54.300781 212.324219 54.601562 212.828125 54.875 213.351562 C 55.148438 213.871094 55.398438 214.40625 55.621094 214.949219 C 55.84375 215.496094 56.039062 216.050781 56.207031 216.617188 C 56.375 217.179688 56.515625 217.75 56.628906 218.328125 C 56.742188 218.90625 56.828125 219.488281 56.886719 220.074219 C 56.941406 220.660156 56.972656 221.25 56.972656 221.839844 C 56.972656 222.425781 56.941406 223.015625 56.886719 223.601562 C 56.828125 224.1875 56.742188 224.769531 56.628906 225.347656 C 56.515625 225.925781 56.375 226.496094 56.207031 227.0625 C 56.039062 227.625 55.84375 228.179688 55.621094 228.726562 C 55.398438 229.269531 55.148438 229.804688 54.875 230.324219 C 54.601562 230.847656 54.300781 231.355469 53.976562 231.847656 C 53.65625 232.339844 53.308594 232.8125 52.9375 233.273438 C 52.570312 233.730469 52.179688 234.171875 51.765625 234.59375 C 51.355469 235.011719 50.921875 235.414062 50.472656 235.792969 C 50.019531 236.171875 49.550781 236.527344 49.066406 236.863281 C 48.582031 237.195312 48.082031 237.503906 47.566406 237.792969 C 47.050781 238.078125 46.519531 238.335938 45.980469 238.570312 C 45.441406 238.804688 44.890625 239.011719 44.328125 239.191406 C 43.765625 239.375 43.199219 239.527344 42.625 239.652344 C 42.046875 239.777344 41.46875 239.875 40.882812 239.945312 C 40.296875 240.015625 39.710938 240.058594 39.121094 240.070312 L 28.800781 240.070312 L 28.800781 270.53125 L 39.121094 270.53125 C 39.71875 270.53125 40.3125 270.5625 40.90625 270.621094 C 41.503906 270.679688 42.09375 270.765625 42.679688 270.882812 C 43.265625 271 43.84375 271.144531 44.414062 271.316406 C 44.984375 271.492188 45.546875 271.691406 46.097656 271.921875 C 46.652344 272.148438 47.191406 272.402344 47.714844 272.683594 C 48.242188 272.964844 48.753906 273.273438 49.25 273.605469 C 49.75 273.9375 50.226562 274.292969 50.6875 274.671875 C 51.152344 275.050781 51.59375 275.449219 52.015625 275.871094 C 52.4375 276.292969 52.839844 276.734375 53.21875 277.195312 C 53.597656 277.660156 53.953125 278.136719 54.28125 278.632812 C 54.613281 279.128906 54.921875 279.640625 55.203125 280.167969 C 55.484375 280.695312 55.738281 281.234375 55.96875 281.785156 C 56.195312 282.335938 56.398438 282.898438 56.570312 283.46875 C 56.746094 284.039062 56.890625 284.617188 57.007812 285.203125 C 57.121094 285.789062 57.210938 286.378906 57.269531 286.972656 C 57.328125 287.566406 57.355469 288.164062 57.355469 288.761719 C 57.355469 289.355469 57.328125 289.953125 57.269531 290.546875 C 57.210938 291.140625 57.121094 291.730469 57.007812 292.316406 C 56.890625 292.902344 56.746094 293.480469 56.570312 294.050781 C 56.398438 294.621094 56.195312 295.183594 55.96875 295.734375 C 55.738281 296.285156 55.484375 296.824219 55.203125 297.351562 C 54.921875 297.878906 54.613281 298.390625 54.28125 298.886719 C 53.953125 299.382812 53.597656 299.863281 53.21875 300.324219 C 52.839844 300.785156 52.4375 301.226562 52.015625 301.648438 C 51.59375 302.070312 51.152344 302.472656 50.6875 302.851562 C 50.226562 303.230469 49.75 303.582031 49.25 303.914062 C 48.753906 304.246094 48.242188 304.554688 47.714844 304.835938 C 47.191406 305.117188 46.652344 305.371094 46.097656 305.601562 C 45.546875 305.828125 44.984375 306.027344 44.414062 306.203125 C 43.84375 306.375 43.265625 306.519531 42.679688 306.636719 C 42.09375 306.753906 41.503906 306.839844 40.90625 306.898438 C 40.3125 306.957031 39.71875 306.988281 39.121094 306.988281 L 28.800781 306.988281 L 28.800781 338.972656 C 28.800781 339.734375 28.875 340.484375 29.027344 341.230469 C 29.175781 341.976562 29.394531 342.699219 29.683594 343.402344 C 29.976562 344.101562 30.332031 344.769531 30.753906 345.402344 C 31.179688 346.03125 31.65625 346.617188 32.195312 347.15625 C 32.734375 347.691406 33.316406 348.171875 33.949219 348.59375 C 34.582031 349.015625 35.25 349.371094 35.949219 349.664062 C 36.652344 349.953125 37.375 350.175781 38.121094 350.324219 C 38.867188 350.472656 39.621094 350.546875 40.378906 350.546875 L 240.222656 350.546875 C 241.363281 350.546875 242.503906 350.492188 243.640625 350.378906 C 244.78125 350.265625 245.910156 350.097656 247.03125 349.875 C 248.152344 349.652344 249.261719 349.375 250.355469 349.042969 C 251.449219 348.710938 252.523438 348.328125 253.578125 347.890625 C 254.636719 347.453125 255.667969 346.964844 256.675781 346.425781 C 257.683594 345.886719 258.664062 345.300781 259.613281 344.667969 C 260.5625 344.03125 261.480469 343.351562 262.363281 342.628906 C 263.25 341.902344 264.09375 341.136719 264.902344 340.328125 C 265.710938 339.519531 266.480469 338.675781 267.203125 337.792969 C 267.929688 336.90625 268.609375 335.992188 269.246094 335.042969 C 269.878906 334.089844 270.464844 333.113281 271.003906 332.105469 C 271.542969 331.097656 272.03125 330.066406 272.46875 329.007812 C 272.90625 327.953125 273.292969 326.878906 273.625 325.785156 C 273.957031 324.691406 274.234375 323.585938 274.457031 322.464844 C 274.679688 321.34375 274.847656 320.214844 274.960938 319.078125 C 275.070312 317.941406 275.128906 316.800781 275.128906 315.660156 L 275.128906 262.050781 L 249.585938 287.519531 C 249.683594 287.894531 249.734375 288.28125 249.742188 288.671875 C 249.75 289.0625 249.710938 289.449219 249.628906 289.828125 C 249.550781 290.210938 249.425781 290.578125 249.261719 290.933594 C 249.09375 291.285156 248.890625 291.617188 248.648438 291.921875 C 248.410156 292.230469 248.136719 292.507812 247.832031 292.75 C 247.527344 292.996094 247.199219 293.203125 246.847656 293.371094 C 246.496094 293.539062 246.128906 293.667969 245.746094 293.75 C 245.363281 293.835938 244.980469 293.878906 244.589844 293.875 L 86.941406 293.875 C 86.605469 293.875 86.273438 293.839844 85.945312 293.777344 C 85.617188 293.710938 85.296875 293.613281 84.988281 293.484375 C 84.675781 293.355469 84.382812 293.199219 84.101562 293.015625 C 83.824219 292.828125 83.566406 292.617188 83.328125 292.378906 C 83.09375 292.140625 82.878906 291.882812 82.695312 291.605469 C 82.507812 291.328125 82.351562 291.03125 82.222656 290.722656 C 82.09375 290.414062 81.996094 290.09375 81.929688 289.765625 C 81.867188 289.4375 81.832031 289.105469 81.832031 288.769531 C 81.832031 288.433594 81.867188 288.101562 81.929688 287.773438 C 81.996094 287.445312 82.09375 287.125 82.222656 286.816406 C 82.351562 286.503906 82.507812 286.210938 82.695312 285.933594 C 82.878906 285.652344 83.09375 285.394531 83.328125 285.160156 C 83.566406 284.921875 83.824219 284.710938 84.101562 284.523438 C 84.382812 284.335938 84.675781 284.179688 84.988281 284.050781 C 85.296875 283.921875 85.617188 283.828125 85.945312 283.761719 C 86.273438 283.695312 86.605469 283.664062 86.941406 283.664062 L 239.597656 283.664062 L 244.257812 229.320312 C 244.253906 229.28125 244.253906 229.242188 244.257812 229.203125 C 244.273438 229.042969 244.296875 228.882812 244.332031 228.726562 C 244.347656 228.644531 244.367188 228.566406 244.394531 228.488281 C 244.46875 228.167969 244.582031 227.859375 244.726562 227.5625 L 245.015625 226.9375 C 244.867188 226.949219 244.71875 226.949219 244.570312 226.9375 L 86.941406 226.9375 C 86.605469 226.9375 86.273438 226.90625 85.945312 226.839844 C 85.617188 226.777344 85.296875 226.679688 84.988281 226.550781 C 84.675781 226.421875 84.382812 226.265625 84.101562 226.078125 C 83.824219 225.894531 83.566406 225.679688 83.328125 225.445312 C 83.09375 225.207031 82.878906 224.949219 82.695312 224.671875 C 82.507812 224.390625 82.351562 224.097656 82.222656 223.789062 C 82.09375 223.476562 81.996094 223.160156 81.929688 222.828125 C 81.867188 222.5 81.832031 222.167969 81.832031 221.832031 C 81.832031 221.5 81.867188 221.167969 81.929688 220.835938 C 81.996094 220.507812 82.09375 220.191406 82.222656 219.878906 C 82.351562 219.570312 82.507812 219.277344 82.695312 218.996094 C 82.878906 218.71875 83.09375 218.460938 83.328125 218.222656 C 83.566406 217.988281 83.824219 217.773438 84.101562 217.589844 C 84.382812 217.402344 84.675781 217.246094 84.988281 217.117188 C 85.296875 216.988281 85.617188 216.890625 85.945312 216.828125 C 86.273438 216.761719 86.605469 216.726562 86.941406 216.726562 Z M 86.941406 82.867188 L 244.589844 82.867188 C 244.925781 82.867188 245.257812 82.898438 245.585938 82.964844 C 245.914062 83.03125 246.234375 83.128906 246.542969 83.253906 C 246.851562 83.382812 247.148438 83.542969 247.425781 83.726562 C 247.707031 83.914062 247.964844 84.125 248.199219 84.363281 C 248.4375 84.597656 248.648438 84.855469 248.835938 85.136719 C 249.023438 85.414062 249.179688 85.710938 249.308594 86.019531 C 249.4375 86.328125 249.53125 86.648438 249.597656 86.976562 C 249.664062 87.304688 249.695312 87.636719 249.695312 87.972656 C 249.695312 88.308594 249.664062 88.640625 249.597656 88.96875 C 249.53125 89.296875 249.4375 89.617188 249.308594 89.925781 C 249.179688 90.234375 249.023438 90.53125 248.835938 90.808594 C 248.648438 91.085938 248.4375 91.347656 248.199219 91.582031 C 247.964844 91.820312 247.707031 92.03125 247.425781 92.21875 C 247.148438 92.402344 246.851562 92.5625 246.542969 92.691406 C 246.234375 92.816406 245.914062 92.914062 245.585938 92.980469 C 245.257812 93.046875 244.925781 93.078125 244.589844 93.078125 L 86.941406 93.078125 C 86.605469 93.078125 86.273438 93.046875 85.945312 92.980469 C 85.617188 92.914062 85.296875 92.816406 84.988281 92.691406 C 84.675781 92.5625 84.382812 92.402344 84.101562 92.21875 C 83.824219 92.03125 83.566406 91.820312 83.328125 91.582031 C 83.09375 91.347656 82.878906 91.085938 82.695312 90.808594 C 82.507812 90.53125 82.351562 90.234375 82.222656 89.925781 C 82.09375 89.617188 81.996094 89.296875 81.929688 88.96875 C 81.867188 88.640625 81.832031 88.308594 81.832031 87.972656 C 81.832031 87.636719 81.867188 87.304688 81.929688 86.976562 C 81.996094 86.648438 82.09375 86.328125 82.222656 86.019531 C 82.351562 85.710938 82.507812 85.414062 82.695312 85.136719 C 82.878906 84.855469 83.09375 84.597656 83.328125 84.363281 C 83.566406 84.125 83.824219 83.914062 84.101562 83.726562 C 84.382812 83.542969 84.675781 83.382812 84.988281 83.253906 C 85.296875 83.128906 85.617188 83.03125 85.945312 82.964844 C 86.273438 82.898438 86.605469 82.867188 86.941406 82.867188 Z M 86.941406 149.792969 L 244.589844 149.792969 C 244.925781 149.792969 245.257812 149.824219 245.585938 149.890625 C 245.914062 149.957031 246.234375 150.054688 246.542969 150.183594 C 246.851562 150.308594 247.148438 150.46875 247.425781 150.652344 C 247.707031 150.839844 247.964844 151.050781 248.199219 151.289062 C 248.4375 151.527344 248.648438 151.785156 248.835938 152.0625 C 249.023438 152.339844 249.179688 152.636719 249.308594 152.945312 C 249.4375 153.253906 249.53125 153.574219 249.597656 153.902344 C 249.664062 154.230469 249.695312 154.5625 249.695312 154.898438 C 249.695312 155.234375 249.664062 155.566406 249.597656 155.894531 C 249.53125 156.222656 249.4375 156.542969 249.308594 156.851562 C 249.179688 157.164062 249.023438 157.457031 248.835938 157.734375 C 248.648438 158.015625 248.4375 158.273438 248.199219 158.507812 C 247.964844 158.746094 247.707031 158.957031 247.425781 159.144531 C 247.148438 159.332031 246.851562 159.488281 246.542969 159.617188 C 246.234375 159.746094 245.914062 159.839844 245.585938 159.90625 C 245.257812 159.972656 244.925781 160.003906 244.589844 160.003906 L 86.941406 160.003906 C 86.605469 160.003906 86.273438 159.972656 85.945312 159.90625 C 85.617188 159.839844 85.296875 159.746094 84.988281 159.617188 C 84.675781 159.488281 84.382812 159.332031 84.101562 159.144531 C 83.824219 158.957031 83.566406 158.746094 83.328125 158.507812 C 83.09375 158.273438 82.878906 158.015625 82.695312 157.734375 C 82.507812 157.457031 82.351562 157.164062 82.222656 156.851562 C 82.09375 156.542969 81.996094 156.222656 81.929688 155.894531 C 81.867188 155.566406 81.832031 155.234375 81.832031 154.898438 C 81.832031 154.5625 81.867188 154.230469 81.929688 153.902344 C 81.996094 153.574219 82.09375 153.253906 82.222656 152.945312 C 82.351562 152.636719 82.507812 152.339844 82.695312 152.0625 C 82.878906 151.785156 83.09375 151.527344 83.328125 151.289062 C 83.566406 151.050781 83.824219 150.839844 84.101562 150.652344 C 84.382812 150.46875 84.675781 150.308594 84.988281 150.183594 C 85.296875 150.054688 85.617188 149.957031 85.945312 149.890625 C 86.273438 149.824219 86.605469 149.792969 86.941406 149.792969 Z M 86.941406 149.792969 " fill-opacity="1" fill-rule="nonzero"/></g></svg>